<svg width="0" height="0" viewBox="0 0 451 347" fill="none" xmlns="http://www.w3.org/2000/svg">
<path d="M367.266 19.8401C368.843 8.46743 378.566 0 390.048 0L419.061 0C430.662 0 440.447 8.63945 441.884 20.151L445.61 50L450.465 129L451 180L450.465 216L445.61 288.5L441.562 326.44C440.315 338.132 430.45 347 418.692 347H390.452C378.797 347 368.984 338.282 367.612 326.708L363.083 288.5L357.881 216L357 179L357.881 129L363.083 50L367.266 19.8401Z" fill="#E2CCB6" fill-opacity="0.7"/>
<path d="M390.048 2L419.061 2C429.653 2 438.588 9.88819 439.9 20.3987L443.618 50.1855L448.466 129.072L449 179.996L448.466 215.918L443.617 288.327L439.574 326.228C438.435 336.903 429.428 345 418.692 345H390.452C379.811 345 370.851 337.04 369.598 326.472L365.074 288.311L359.88 215.905L359 178.994L359.88 129.083L365.074 50.2034L369.247 20.1149C370.687 9.73114 379.565 2 390.048 2Z" stroke="black" stroke-opacity="0.7" stroke-width="4"/>
<path d="M392.473 7L417.546 7C426.661 7 434.337 13.8134 435.419 22.8639L438.885 51.8676L443.465 129.71L444.483 180.397L443.467 215.277L438.884 286.76L435.097 323.829C434.159 333.014 426.423 340 417.19 340H392.863C383.707 340 376.01 333.127 374.978 324.03L370.743 286.721L365.833 215.245L364.53 180.39L365.836 129.735L370.742 51.9106L374.63 22.6304C375.818 13.6837 383.448 7 392.473 7Z" stroke="#6D4E2B" stroke-opacity="0.13" stroke-width="10"/>
<path d="M33.4389 2H61.6586C72.2611 2 81.2006 9.90335 82.5002 20.426L86.1754 50.1834L90.972 129.081L91.9995 180.491L90.9727 215.905L86.1749 288.329L82.1768 326.205C81.0488 336.89 72.0374 345 61.2928 345H33.8396C23.188 345 14.2234 337.026 12.9826 326.446L8.50998 288.313L3.36953 215.891L2.00103 180.488L3.37053 129.092L8.50938 50.2012L12.6339 20.145C14.0607 9.74771 22.9442 2 33.4389 2Z" fill="#A8835E" stroke="#110E0A" stroke-width="4"/>
<line y1="-2" x2="47.1209" y2="-2" transform="matrix(0.700327 0.713823 -0.700327 0.713823 30 73.3643)" stroke="#020201" stroke-opacity="0.83" stroke-width="4"/>
<path d="M62.1084 72L30.0003 105.636" stroke="#020201" stroke-opacity="0.83" stroke-width="4"/>
<line y1="-2" x2="47.1209" y2="-2" transform="matrix(0.700327 0.713823 -0.700327 0.713823 30 160.364)" stroke="#020201" stroke-opacity="0.83" stroke-width="4"/>
<path d="M62.1084 159L30.0003 192.636" stroke="#020201" stroke-opacity="0.83" stroke-width="4"/>
<line y1="-2" x2="47.1209" y2="-2" transform="matrix(0.700327 0.713823 -0.700327 0.713823 30 245.364)" stroke="#020201" stroke-opacity="0.83" stroke-width="4"/>
<path d="M62.1084 244L30.0003 277.636" stroke="#020201" stroke-opacity="0.83" stroke-width="4"/>
<line x1="48" y1="20" x2="48" y2="332" stroke="#92704B" stroke-opacity="0.23" stroke-width="2"/>
<path d="M152.439 2H180.659C191.261 2 200.201 9.90335 201.5 20.426L205.175 50.1834L209.972 129.081L210.999 180.491L209.973 215.905L205.175 288.329L201.177 326.205C200.049 336.89 191.037 345 180.293 345H152.84C142.188 345 133.223 337.026 131.983 326.446L127.51 288.313L122.37 215.891L121.001 180.488L122.371 129.092L127.509 50.2012L131.634 20.145C133.061 9.74771 141.944 2 152.439 2Z" fill="#A8835E" stroke="#110E0A" stroke-width="4"/>
<line y1="-2" x2="47.1209" y2="-2" transform="matrix(0.700327 0.713823 -0.700327 0.713823 149 73.3643)" stroke="#020201" stroke-opacity="0.83" stroke-width="4"/>
<path d="M181.108 72L149 105.636" stroke="#020201" stroke-opacity="0.83" stroke-width="4"/>
<line y1="-2" x2="47.1209" y2="-2" transform="matrix(0.700327 0.713823 -0.700327 0.713823 149 160.364)" stroke="#020201" stroke-opacity="0.83" stroke-width="4"/>
<path d="M181.108 159L149 192.636" stroke="#020201" stroke-opacity="0.83" stroke-width="4"/>
<line y1="-2" x2="47.1209" y2="-2" transform="matrix(0.700327 0.713823 -0.700327 0.713823 149 245.364)" stroke="#020201" stroke-opacity="0.83" stroke-width="4"/>
<path d="M181.108 244L149 277.636" stroke="#020201" stroke-opacity="0.83" stroke-width="4"/>
<line x1="167" y1="20" x2="167" y2="332" stroke="#92704B" stroke-opacity="0.23" stroke-width="2"/>
<path d="M271.439 2H299.659C310.261 2 319.201 9.90335 320.5 20.426L324.175 50.1834L328.972 129.081L329.999 180.491L328.973 215.905L324.175 288.329L320.177 326.205C319.049 336.89 310.037 345 299.293 345H271.84C261.188 345 252.223 337.026 250.983 326.446L246.51 288.313L241.37 215.891L240.001 180.488L241.371 129.092L246.509 50.2012L250.634 20.145C252.061 9.74771 260.944 2 271.439 2Z" fill="#A8835E" stroke="#110E0A" stroke-width="4"/>
<line y1="-2" x2="47.1209" y2="-2" transform="matrix(0.700327 0.713823 -0.700327 0.713823 268 73.3643)" stroke="#020201" stroke-opacity="0.83" stroke-width="4"/>
<path d="M300.108 72L268 105.636" stroke="#020201" stroke-opacity="0.83" stroke-width="4"/>
<line y1="-2" x2="47.1209" y2="-2" transform="matrix(0.700327 0.713823 -0.700327 0.713823 268 160.364)" stroke="#020201" stroke-opacity="0.83" stroke-width="4"/>
<path d="M300.108 159L268 192.636" stroke="#020201" stroke-opacity="0.83" stroke-width="4"/>
<line y1="-2" x2="47.1209" y2="-2" transform="matrix(0.700327 0.713823 -0.700327 0.713823 268 245.364)" stroke="#020201" stroke-opacity="0.83" stroke-width="4"/>
<path d="M300.108 244L268 277.636" stroke="#020201" stroke-opacity="0.83" stroke-width="4"/>
<line x1="286" y1="20" x2="286" y2="332" stroke="#92704B" stroke-opacity="0.23" stroke-width="2"/>
</svg>
