<svg width="0" height="0" viewBox="0 0 32 32" fill="none" xmlns="http://www.w3.org/2000/svg">
<circle cx="15.99" cy="15.99" r="14.99" fill="white"/>
<path d="M5.27894 26.7476L5.27846 26.7471C3.69099 25.1434 2.56891 23.5647 1.84504 21.826C1.12108 20.087 0.8 18.1991 0.8 15.983C0.8 13.767 1.12108 11.879 1.84504 10.1401C2.56886 8.40148 3.69084 6.82282 5.27815 5.21922C6.88317 3.58706 7.57055 3.05054 9.10738 2.32347C10.1272 1.82284 11.5409 1.27625 12.272 1.09809C13.2059 0.852957 14.4582 0.767431 16.4226 0.810749L16.4237 0.810778C18.8024 0.87587 19.4972 0.963188 20.8641 1.47187C26.1472 3.35614 30.1024 7.97864 30.9772 13.3328L30.9773 13.3337C31.8068 18.5682 30.0608 23.7424 26.2787 27.2083L26.2784 27.2085C23.3548 29.8793 20.6577 31.0018 16.7498 31.1552C13.6147 31.2862 11.727 30.913 9.15019 29.6641L9.14974 29.6638C8.36715 29.2821 7.80476 28.9619 7.23264 28.5293C6.66282 28.0985 6.08852 27.5599 5.27894 26.7476ZM2.85142 11.9314L2.85141 11.9315C2.5472 12.9103 2.38595 14.397 2.37523 15.8925C2.36451 17.3879 2.50448 18.8632 2.78733 19.8202C5.02015 27.1799 12.7579 31.3366 20.0247 29.0983C22.0629 28.4592 23.5464 27.5673 25.2516 25.9633C31.1411 20.3952 31.1411 11.5708 25.2516 6.00272C23.5466 4.399 22.0633 3.50706 20.0255 2.86795C18.0284 2.27139 14.9593 2.1229 13.0126 2.56874L13.0116 2.56898C8.33729 3.61357 4.27491 7.34822 2.85142 11.9314Z" fill="#D8C6AD" stroke="#D8C6AD" stroke-width="0.4"/>
<path d="M13.7551 5.27514L13.7553 5.27505C14.3516 4.92934 14.9035 4.85 16.3226 4.85C17.3334 4.85 18.0169 4.90495 18.5751 5.10415C19.1393 5.30549 19.5616 5.64895 20.0624 6.19241C20.527 6.67212 20.8408 7.17742 21.0231 7.76388C21.2049 8.34897 21.2531 9.00644 21.1987 9.78675C21.1987 9.78692 21.1987 9.78708 21.1987 9.78724L21.1234 10.9222H22.1877C23.6672 10.9222 24.9035 11.3613 25.7745 12.1556C26.6466 12.9509 27.139 14.0905 27.15 15.4632V15.4644C27.15 16.2455 27.0415 16.8224 26.7189 17.3015C26.3982 17.7779 25.88 18.1362 25.1111 18.5137L25.1111 18.5137L25.1089 18.5148L24.1888 18.9482L24.5485 19.5129L24.5495 19.5146C24.8711 20.0339 25.0127 20.7696 24.9962 21.5297C24.9797 22.2925 24.8038 23.099 24.4703 23.7692L24.4704 23.7692L24.4685 23.7727C23.8184 24.9977 22.7624 25.6858 21.0124 26.0155L21.0124 26.0155L21.0117 26.0156C20.0666 26.1896 19.325 26.2038 18.669 26.004C18.0108 25.8036 17.4573 25.3934 16.8775 24.7545L16.1 23.8998L15.7569 24.3769L15.7567 24.3773C15.0789 25.3138 14.0223 25.8127 12.5546 25.9366C11.9974 25.9871 11.6462 26.0003 11.3072 25.9149C10.9698 25.83 10.6553 25.6499 10.1642 25.3482L10.1642 25.3482L10.162 25.3468C8.17854 24.0803 7.34016 21.7572 8.23782 19.8538C8.35018 19.6118 8.43037 19.4247 8.47923 19.2794C8.5297 19.1293 8.53898 19.0452 8.53171 19C8.52873 18.9815 8.52362 18.974 8.52027 18.97C8.51628 18.9654 8.50656 18.9565 8.48223 18.947C8.42793 18.9258 8.3345 18.9136 8.18031 18.9136C7.74394 18.9136 7.22726 18.7216 6.74756 18.4229C6.26573 18.1229 5.80437 17.7049 5.47964 17.2308C5.17924 16.8163 5.00208 16.5376 4.91672 16.1854C4.83283 15.8393 4.84039 15.4322 4.87239 14.769L4.87243 14.7683C4.90468 14.1605 4.94811 13.7496 5.056 13.3965C5.1652 13.0392 5.3375 12.7501 5.61043 12.3798L5.61128 12.3787C5.99056 11.8742 6.71792 11.2719 7.27646 10.9982L7.2772 10.9979C7.70188 10.7927 8.01815 10.6691 8.42086 10.6077C8.81811 10.547 9.29321 10.5479 10.0336 10.5782C10.0337 10.5782 10.0339 10.5782 10.034 10.5782L11.5995 10.6335L11.6181 9.63232L11.6181 9.63092C11.6404 8.83498 11.9113 7.9031 12.3018 7.09777C12.69 6.29717 13.2113 5.5913 13.7551 5.27514ZM5.02212 14.7762L5.02222 14.7762L5.02212 14.7762ZM17.9943 6.37714L17.9935 6.37685C17.5652 6.23276 16.9023 6.16211 16.2572 6.16961C15.9365 6.17335 15.6248 6.19635 15.354 6.23779C15.0809 6.2796 14.8591 6.33877 14.7125 6.41007L14.7108 6.41086C14.5678 6.47824 14.4019 6.62098 14.2287 6.83031C14.0574 7.03734 13.887 7.29965 13.7322 7.59258C13.422 8.17954 13.1827 8.87387 13.1205 9.46717C13.0892 9.83183 13.0952 10.1243 13.1608 10.4311C13.2269 10.7398 13.355 11.0709 13.5776 11.5104L13.5776 11.5104L13.5789 11.513C13.794 11.9589 13.9247 12.2815 13.9771 12.523C14.0304 12.7686 14.0088 12.9606 13.881 13.1116C13.6993 13.3285 13.4746 13.4518 13.2289 13.4383C12.9875 13.4251 12.7647 13.2821 12.5775 13.0517C12.4869 12.9503 12.3063 12.8209 12.0591 12.6809C11.8142 12.5423 11.5172 12.4007 11.2087 12.2735C10.9003 12.1463 10.5831 12.0345 10.298 11.9548C10.011 11.8745 9.76692 11.8297 9.59979 11.8294C9.14526 11.8393 8.58232 12.0027 8.06076 12.257C7.53827 12.5118 7.07755 12.848 6.81751 13.1868C6.50405 13.6064 6.31357 14.1552 6.26462 14.7134C6.21562 15.2724 6.30952 15.8281 6.54988 16.2621L6.55029 16.2629C6.91079 16.9227 7.46224 17.4276 8.15207 17.6705C8.84085 17.9129 9.68138 17.8989 10.6296 17.4964L10.6296 17.4963L10.6326 17.4951C11.191 17.2725 11.6301 17.1572 11.939 17.1892C12.0996 17.2059 12.2405 17.264 12.3384 17.3822C12.4345 17.4981 12.4709 17.65 12.4709 17.8166C12.4709 17.9213 12.4266 18.0162 12.3617 18.0995C12.2971 18.1824 12.2055 18.2624 12.0931 18.3416C11.8682 18.4998 11.5347 18.6716 11.092 18.8649C9.64295 19.498 9.02605 20.4192 9.04712 21.3557C9.06847 22.305 9.74459 23.3378 11.034 24.1842L11.034 24.1842L11.0349 24.1848C11.4848 24.4846 11.6926 24.6141 11.9051 24.6529C12.1152 24.6912 12.3432 24.6428 12.8466 24.5087L12.8466 24.5087L12.8484 24.5083C13.6677 24.3005 14.229 23.9843 14.5988 23.5136C14.9694 23.0417 15.1638 22.3939 15.206 21.4891L15.206 21.4891L15.2062 21.4855C15.2282 21.1757 15.272 20.8647 15.3276 20.6136C15.3553 20.4883 15.3865 20.3749 15.4206 20.2828C15.4521 20.1977 15.494 20.1074 15.5538 20.0511C15.6817 19.9305 15.8314 19.8723 15.9866 19.8862C16.138 19.8998 16.2723 19.98 16.3798 20.0917C16.593 20.3136 16.7304 20.6886 16.7304 21.1116C16.7304 21.5033 16.8965 22.056 17.1693 22.62C17.4406 23.1807 17.8079 23.733 18.1913 24.1235L18.1914 24.1236C18.445 24.3824 18.6129 24.5134 18.8287 24.5878C19.0516 24.6646 19.3393 24.6858 19.8459 24.6858C20.5876 24.6858 21.3015 24.5233 21.8874 24.2473C22.4751 23.9704 22.9229 23.5851 23.1502 23.1474L23.1511 23.1457C24.099 21.379 23.2479 19.2439 21.46 18.7462L21.4591 18.746C20.8891 18.5839 20.4953 18.4314 20.2434 18.2471C20.1147 18.153 20.0186 18.0474 19.9557 17.9241C19.8927 17.8006 19.8678 17.6687 19.8678 17.529C19.8678 17.3983 19.8911 17.2698 19.9694 17.1703C20.052 17.0652 20.1732 17.0203 20.307 17.0124C20.4372 17.0046 20.5933 17.0304 20.7735 17.0797C20.9554 17.1296 21.172 17.2065 21.4268 17.3086C22.1623 17.6014 22.9714 17.6649 23.6858 17.5333C24.4021 17.4012 25.0075 17.0764 25.3543 16.6096L25.3546 16.6092C25.5825 16.3049 25.6892 15.7995 25.6605 15.2521C25.6321 14.7084 25.4715 14.156 25.2017 13.7698C24.4397 12.7029 23.3323 12.1973 21.8991 12.3147L21.8991 12.3147L21.8954 12.3149C21.1921 12.3551 20.6814 12.4401 20.2613 12.6655C20.0509 12.7904 19.8247 12.8995 19.6279 12.9779C19.529 13.0172 19.4359 13.0495 19.3546 13.0722C19.2763 13.094 19.1986 13.1099 19.1347 13.1099C18.979 13.1099 18.8418 13.0668 18.7424 12.9741C18.642 12.8805 18.598 12.753 18.598 12.6209C18.598 12.3644 18.7597 12.0739 19.0357 11.8352C19.7946 11.1571 19.9522 10.0437 19.7625 8.93167L19.7625 8.93168L19.7619 8.92747C19.6795 8.3457 19.4369 7.77071 19.111 7.30775C18.7835 6.84249 18.3828 6.50523 17.9943 6.37714Z" fill="#D8C6AD" stroke="#D8C6AD" stroke-width="0.3"/>
<path d="M15.3064 12.9865L15.3073 12.9863C16.1731 12.7268 17.1051 12.9596 17.8445 13.4903C18.5841 14.0212 19.1405 14.8564 19.2521 15.8179C19.4085 17.0635 18.7532 18.1424 17.7963 18.7435C16.8393 19.3446 15.5692 19.4755 14.4861 18.8145L14.486 18.8145C12.0366 17.3175 12.5116 13.8545 15.3064 12.9865ZM17.3363 14.7979L17.3362 14.798L17.3332 14.7948C17.0072 14.4472 16.6241 14.2858 16.1782 14.2855C15.7241 14.2962 15.3993 14.3703 15.1375 14.5304C14.8758 14.6905 14.6654 14.9436 14.4543 15.3353C13.8671 16.4954 14.8214 17.98 16.1986 17.98C16.2906 17.98 16.4496 17.9261 16.6424 17.824C16.8301 17.7246 17.0347 17.5878 17.2129 17.4405C18.0526 16.7418 18.1121 15.5559 17.3363 14.7979Z" fill="#D8C6AD" stroke="#D8C6AD" stroke-width="0.2"/>
</svg>
