<svg width="451" height="347" viewBox="0 0 451 347" fill="none" xmlns="http://www.w3.org/2000/svg">
<path d="M12.6339 20.145C14.0607 9.74771 22.9442 2 33.4389 2H61.6586C72.2611 2 81.2006 9.90335 82.5002 20.426L86.1754 50.1834L90.972 129.081L91.9994 180.491L90.9727 215.905L86.1749 288.329L82.1768 326.205C81.0488 336.89 72.0374 345 61.2928 345H33.8396C23.188 345 14.2234 337.026 12.9826 326.446L8.50998 288.313L3.36953 215.891L2.00103 180.488L3.37053 129.092L8.50938 50.2012L12.6339 20.145Z" fill="#A8835E" stroke="#110E0A" stroke-width="4"/>
<line y1="-2" x2="47.1209" y2="-2" transform="matrix(0.700327 0.713823 -0.700327 0.713823 30 73.3643)" stroke="#020201" stroke-opacity="0.83" stroke-width="4"/>
<path d="M62.1084 72L30.0003 105.636" stroke="#020201" stroke-opacity="0.83" stroke-width="4"/>
<line y1="-2" x2="47.1209" y2="-2" transform="matrix(0.700327 0.713823 -0.700327 0.713823 30 160.363)" stroke="#020201" stroke-opacity="0.83" stroke-width="4"/>
<path d="M62.1084 159L30.0003 192.636" stroke="#020201" stroke-opacity="0.83" stroke-width="4"/>
<line y1="-2" x2="47.1209" y2="-2" transform="matrix(0.700327 0.713823 -0.700327 0.713823 30 245.363)" stroke="#020201" stroke-opacity="0.83" stroke-width="4"/>
<path d="M62.1084 244L30.0003 277.636" stroke="#020201" stroke-opacity="0.83" stroke-width="4"/>
<line x1="48" y1="20" x2="48" y2="332" stroke="#92704B" stroke-opacity="0.23" stroke-width="2"/>
<path d="M129.266 19.8401C130.843 8.46743 140.566 0 152.048 0L181.061 0C192.662 0 202.447 8.63945 203.884 20.151L207.61 50L212.465 129L213 180L212.465 216L207.61 288.5L203.562 326.44C202.315 338.132 192.45 347 180.692 347H152.452C140.797 347 130.984 338.282 129.612 326.708L125.083 288.5L119.881 216L119 179L119.881 129L125.083 50L129.266 19.8401Z" fill="#E2CCB6" fill-opacity="0.7"/>
<path d="M131.247 20.1149C132.687 9.73114 141.565 2 152.048 2L181.061 2C191.653 2 200.588 9.88819 201.9 20.3987L205.618 50.1855L210.466 129.072L211 179.996L210.466 215.918L205.617 288.327L201.574 326.228C200.435 336.903 191.428 345 180.692 345H152.452C141.811 345 132.851 337.04 131.598 326.472L127.074 288.311L121.88 215.905L121 178.994L121.88 129.083L127.074 50.2034L131.247 20.1149Z" stroke="black" stroke-opacity="0.7" stroke-width="4"/>
<path d="M136.63 22.6304C137.818 13.6837 145.448 7 154.473 7L179.546 7C188.661 7 196.337 13.8134 197.419 22.8639L200.885 51.8676L205.465 129.71L206.483 180.397L205.467 215.277L200.884 286.76L197.097 323.829C196.159 333.014 188.423 340 179.19 340H154.863C145.707 340 138.01 333.127 136.978 324.03L132.743 286.721L127.833 215.245L126.53 180.39L127.836 129.735L132.742 51.9106L136.63 22.6304Z" stroke="#6D4E2B" stroke-opacity="0.13" stroke-width="10"/>
<path d="M248.266 19.8401C249.843 8.46743 259.566 0 271.048 0L300.061 0C311.662 0 321.447 8.63945 322.884 20.151L326.61 50L331.465 129L332 180L331.465 216L326.61 288.5L322.562 326.44C321.315 338.132 311.45 347 299.692 347H271.452C259.797 347 249.984 338.282 248.612 326.708L244.083 288.5L238.881 216L238 179L238.881 129L244.083 50L248.266 19.8401Z" fill="#E2CCB6" fill-opacity="0.7"/>
<path d="M250.247 20.1149C251.687 9.73114 260.565 2 271.048 2L300.061 2C310.653 2 319.588 9.88819 320.9 20.3987L324.618 50.1855L329.466 129.072L330 179.996L329.466 215.918L324.617 288.327L320.574 326.228C319.435 336.903 310.428 345 299.692 345H271.452C260.811 345 251.851 337.04 250.598 326.472L246.074 288.311L240.88 215.905L240 178.994L240.88 129.083L246.074 50.2034L250.247 20.1149Z" stroke="black" stroke-opacity="0.7" stroke-width="4"/>
<path d="M255.63 22.6304C256.818 13.6837 264.448 7 273.473 7L298.546 7C307.661 7 315.337 13.8134 316.419 22.8639L319.885 51.8676L324.465 129.71L325.483 180.397L324.467 215.277L319.884 286.76L316.097 323.829C315.159 333.014 307.423 340 298.19 340H273.863C264.707 340 257.01 333.127 255.978 324.03L251.743 286.721L246.833 215.245L245.53 180.39L246.836 129.735L251.742 51.9106L255.63 22.6304Z" stroke="#6D4E2B" stroke-opacity="0.13" stroke-width="10"/>
<path d="M367.266 19.8401C368.843 8.46743 378.566 0 390.048 0L419.061 0C430.662 0 440.447 8.63945 441.884 20.151L445.61 50L450.465 129L451 180L450.465 216L445.61 288.5L441.562 326.44C440.315 338.132 430.45 347 418.692 347H390.452C378.797 347 368.984 338.282 367.612 326.708L363.083 288.5L357.881 216L357 179L357.881 129L363.083 50L367.266 19.8401Z" fill="#E2CCB6" fill-opacity="0.7"/>
<path d="M369.247 20.1149C370.687 9.73114 379.565 2 390.048 2L419.061 2C429.653 2 438.588 9.88819 439.9 20.3987L443.618 50.1855L448.466 129.072L449 179.996L448.466 215.918L443.617 288.327L439.574 326.228C438.435 336.903 429.428 345 418.692 345H390.452C379.811 345 370.851 337.04 369.598 326.472L365.074 288.311L359.88 215.905L359 178.994L359.88 129.083L365.074 50.2034L369.247 20.1149Z" stroke="black" stroke-opacity="0.7" stroke-width="4"/>
<path d="M374.63 22.6304C375.818 13.6837 383.448 7 392.473 7L417.546 7C426.661 7 434.337 13.8134 435.419 22.8639L438.885 51.8676L443.465 129.71L444.483 180.397L443.467 215.277L438.884 286.76L435.097 323.829C434.159 333.014 426.423 340 417.19 340H392.863C383.707 340 376.01 333.127 374.978 324.03L370.743 286.721L365.833 215.245L364.53 180.39L365.836 129.735L370.742 51.9106L374.63 22.6304Z" stroke="#6D4E2B" stroke-opacity="0.13" stroke-width="10"/>
</svg>
