<svg width="0" height="0" viewBox="0 0 59 40" fill="none" xmlns="http://www.w3.org/2000/svg">
<path d="M53.1 0.364502H5.9C2.655 0.364502 0.0295 2.87705 0.0295 5.94795L0 33.8652C0 36.9361 2.655 39.4486 5.9 39.4486H53.1C56.345 39.4486 59 36.9361 59 33.8652V5.94795C59 2.87705 56.345 0.364502 53.1 0.364502ZM26.55 8.73967H32.45V14.3231H26.55V8.73967ZM26.55 17.1148H32.45V22.6983H26.55V17.1148ZM17.7 8.73967H23.6V14.3231H17.7V8.73967ZM17.7 17.1148H23.6V22.6983H17.7V17.1148ZM14.75 22.6983H8.85V17.1148H14.75V22.6983ZM14.75 14.3231H8.85V8.73967H14.75V14.3231ZM41.3 33.8652H17.7V28.2817H41.3V33.8652ZM41.3 22.6983H35.4V17.1148H41.3V22.6983ZM41.3 14.3231H35.4V8.73967H41.3V14.3231ZM50.15 22.6983H44.25V17.1148H50.15V22.6983ZM50.15 14.3231H44.25V8.73967H50.15V14.3231Z" fill="#F07F7F"/>
</svg>
