<svg width="451" height="347" viewBox="0 0 451 347" fill="none" xmlns="http://www.w3.org/2000/svg">
<path d="M12.6339 20.145C14.0607 9.74771 22.9442 2 33.4389 2H61.6586C72.2611 2 81.2006 9.90335 82.5002 20.426L86.1754 50.1834L90.972 129.081L91.9994 180.491L90.9727 215.905L86.1749 288.329L82.1768 326.205C81.0488 336.89 72.0374 345 61.2928 345H33.8396C23.188 345 14.2234 337.026 12.9826 326.446L8.50998 288.313L3.36953 215.891L2.00103 180.488L3.37053 129.092L8.50938 50.2012L12.6339 20.145Z" fill="#A8835E" stroke="#110E0A" stroke-width="4"/>
<line y1="-2" x2="47.1209" y2="-2" transform="matrix(0.700327 0.713823 -0.700327 0.713823 30 73.3643)" stroke="#020201" stroke-opacity="0.83" stroke-width="4"/>
<path d="M62.1084 72L30.0003 105.636" stroke="#020201" stroke-opacity="0.83" stroke-width="4"/>
<line y1="-2" x2="47.1209" y2="-2" transform="matrix(0.700327 0.713823 -0.700327 0.713823 30 160.363)" stroke="#020201" stroke-opacity="0.83" stroke-width="4"/>
<path d="M62.1084 159L30.0003 192.636" stroke="#020201" stroke-opacity="0.83" stroke-width="4"/>
<line y1="-2" x2="47.1209" y2="-2" transform="matrix(0.700327 0.713823 -0.700327 0.713823 30 245.363)" stroke="#020201" stroke-opacity="0.83" stroke-width="4"/>
<path d="M62.1084 244L30.0003 277.636" stroke="#020201" stroke-opacity="0.83" stroke-width="4"/>
<line x1="48" y1="20" x2="48" y2="332" stroke="#92704B" stroke-opacity="0.23" stroke-width="2"/>
<path d="M131.634 20.145C133.061 9.74771 141.944 2 152.439 2H180.659C191.261 2 200.201 9.90335 201.5 20.426L205.175 50.1834L209.972 129.081L210.999 180.491L209.973 215.905L205.175 288.329L201.177 326.205C200.049 336.89 191.037 345 180.293 345H152.84C142.188 345 133.223 337.026 131.983 326.446L127.51 288.313L122.37 215.891L121.001 180.488L122.371 129.092L127.509 50.2012L131.634 20.145Z" fill="#A8835E" stroke="#110E0A" stroke-width="4"/>
<line y1="-2" x2="47.1209" y2="-2" transform="matrix(0.700327 0.713823 -0.700327 0.713823 149 73.3643)" stroke="#020201" stroke-opacity="0.83" stroke-width="4"/>
<path d="M181.108 72L149 105.636" stroke="#020201" stroke-opacity="0.83" stroke-width="4"/>
<line y1="-2" x2="47.1209" y2="-2" transform="matrix(0.700327 0.713823 -0.700327 0.713823 149 160.363)" stroke="#020201" stroke-opacity="0.83" stroke-width="4"/>
<path d="M181.108 159L149 192.636" stroke="#020201" stroke-opacity="0.83" stroke-width="4"/>
<line y1="-2" x2="47.1209" y2="-2" transform="matrix(0.700327 0.713823 -0.700327 0.713823 149 245.363)" stroke="#020201" stroke-opacity="0.83" stroke-width="4"/>
<path d="M181.108 244L149 277.636" stroke="#020201" stroke-opacity="0.83" stroke-width="4"/>
<line x1="167" y1="20" x2="167" y2="332" stroke="#92704B" stroke-opacity="0.23" stroke-width="2"/>
<path d="M369.634 20.145C371.061 9.74771 379.944 2 390.439 2H418.659C429.261 2 438.201 9.90335 439.5 20.426L443.175 50.1834L447.972 129.081L448.999 180.491L447.973 215.905L443.175 288.329L439.177 326.205C438.049 336.89 429.037 345 418.293 345H390.84C380.188 345 371.223 337.026 369.983 326.446L365.51 288.313L360.37 215.891L359.001 180.488L360.371 129.092L365.509 50.2012L369.634 20.145Z" fill="#A8835E" stroke="#110E0A" stroke-width="4"/>
<line y1="-2" x2="47.1209" y2="-2" transform="matrix(0.700327 0.713823 -0.700327 0.713823 387 73.3643)" stroke="#020201" stroke-opacity="0.83" stroke-width="4"/>
<path d="M419.108 72L387 105.636" stroke="#020201" stroke-opacity="0.83" stroke-width="4"/>
<line y1="-2" x2="47.1209" y2="-2" transform="matrix(0.700327 0.713823 -0.700327 0.713823 387 160.363)" stroke="#020201" stroke-opacity="0.83" stroke-width="4"/>
<path d="M419.108 159L387 192.636" stroke="#020201" stroke-opacity="0.83" stroke-width="4"/>
<line y1="-2" x2="47.1209" y2="-2" transform="matrix(0.700327 0.713823 -0.700327 0.713823 387 245.363)" stroke="#020201" stroke-opacity="0.83" stroke-width="4"/>
<path d="M419.108 244L387 277.636" stroke="#020201" stroke-opacity="0.83" stroke-width="4"/>
<line x1="405" y1="20" x2="405" y2="332" stroke="#92704B" stroke-opacity="0.23" stroke-width="2"/>
<path d="M250.634 20.145C252.061 9.74771 260.944 2 271.439 2H299.659C310.261 2 319.201 9.90335 320.5 20.426L324.175 50.1834L328.972 129.081L329.999 180.491L328.973 215.905L324.175 288.329L320.177 326.205C319.049 336.89 310.037 345 299.293 345H271.84C261.188 345 252.223 337.026 250.983 326.446L246.51 288.313L241.37 215.891L240.001 180.488L241.371 129.092L246.509 50.2012L250.634 20.145Z" fill="#A8835E" stroke="#110E0A" stroke-width="4"/>
<line y1="-2" x2="47.1209" y2="-2" transform="matrix(0.700327 0.713823 -0.700327 0.713823 268 73.3643)" stroke="#020201" stroke-opacity="0.83" stroke-width="4"/>
<path d="M300.108 72L268 105.636" stroke="#020201" stroke-opacity="0.83" stroke-width="4"/>
<line y1="-2" x2="47.1209" y2="-2" transform="matrix(0.700327 0.713823 -0.700327 0.713823 268 160.363)" stroke="#020201" stroke-opacity="0.83" stroke-width="4"/>
<path d="M300.108 159L268 192.636" stroke="#020201" stroke-opacity="0.83" stroke-width="4"/>
<line y1="-2" x2="47.1209" y2="-2" transform="matrix(0.700327 0.713823 -0.700327 0.713823 268 245.363)" stroke="#020201" stroke-opacity="0.83" stroke-width="4"/>
<path d="M300.108 244L268 277.636" stroke="#020201" stroke-opacity="0.83" stroke-width="4"/>
<line x1="286" y1="20" x2="286" y2="332" stroke="#92704B" stroke-opacity="0.23" stroke-width="2"/>
</svg>
