<svg width="0" height="0" viewBox="0 0 32 32" fill="none" xmlns="http://www.w3.org/2000/svg">
<path d="M28.339 11.0824C28.339 15.5412 20.9812 30.7615 16.839 30.7615C12.6969 30.7615 4.44141 22.1012 4.44141 17.6424C4.44141 13.1835 11.2485 2 15.3906 2C19.5328 2 28.339 6.62352 28.339 11.0824Z" fill="white"/>
<path d="M19.8459 28.0574C18.6107 29.6817 10.1148 29.2911 6.56707 26.2249C3.01938 23.1587 1.14482 19.3563 2.38013 17.7321C3.61542 16.1079 7.49281 17.2768 11.0405 20.3431C14.5882 23.4094 21.0813 26.4332 19.8459 28.0574Z" fill="white"/>
<path d="M30.5307 13.3758C30.2463 15.3886 26.6635 22.3403 25.5738 22.1835C24.5739 23.1928 20.5755 21.679 26.5844 12.808C26.8687 10.7951 27.9828 9.29048 29.0724 9.44726C30.1621 9.60404 30.815 11.3629 30.5307 13.3758Z" fill="white"/>
<path d="M27.9393 17.789C28.7505 18.3573 27.6644 21.353 25.5134 24.4801C23.3624 27.6072 18.703 30.8255 17.8918 30.2573C17.0807 29.6891 20.425 25.5495 22.576 22.4224C24.7269 19.2952 27.1282 17.2208 27.9393 17.789Z" fill="white"/>
<path d="M28.1058 9.41196C27.8103 9.49773 27.5214 9.53997 27.2098 9.36991C26.9499 9.22798 26.7052 8.94899 26.3986 8.57575C26.1135 8.23126 25.418 7.59384 24.3216 6.68838C23.2352 5.79117 21.7773 4.6485 19.9875 3.2984C19.6657 3.08258 18.9583 2.71135 18.4121 2.48735C17.4797 2.12935 16.3056 2.05712 15.1172 2.25571C13.9292 2.45423 12.7537 2.91906 11.8242 3.60456C10.2958 4.72742 9.01995 6.78162 7.1278 11.275C6.29281 13.2652 5.57845 14.8005 5.00467 15.842C4.71866 16.3612 4.46099 16.7699 4.23455 17.0533C4.12176 17.1944 4.00769 17.316 3.89267 17.4053C3.78741 17.487 3.64205 17.5725 3.46951 17.5772C3.46528 17.5783 3.44772 17.5825 3.41346 17.5955C3.36187 17.615 3.29409 17.646 3.21482 17.6881C3.05638 17.7722 2.87205 17.8899 2.7086 18.0185L2.70594 18.0205C2.37704 18.2741 2.28299 18.3711 2.23199 18.4904C2.17337 18.6275 2.15492 18.8326 2.15492 19.3686C2.15492 20.7491 3.02769 22.5968 4.27953 23.7838L4.2808 23.785C4.75199 24.2363 6.11539 25.212 7.63397 26.2159C9.14402 27.2142 10.7632 28.2114 11.7248 28.7053L11.7266 28.7062C12.5716 29.1464 13.0398 29.3656 13.5117 29.4832C13.9823 29.6004 14.4745 29.6211 15.3795 29.6211L15.385 29.6212C16.1927 29.6339 16.7376 29.6078 17.2543 29.5139C17.7706 29.42 18.2738 29.2557 18.9963 28.9751C20.3768 28.4155 21.3242 27.8982 22.1824 27.1418C23.0461 26.3804 23.8373 25.3613 24.8811 23.7686L24.882 23.7672C27.6521 19.5828 29.463 15.5271 30.0012 12.4716L30.0014 12.4705C30.1485 11.6525 30.2162 11.2011 30.2259 10.896C30.2348 10.6189 30.196 10.4755 30.1096 10.27M28.1058 9.41196C28.4028 9.3266 28.8433 9.38251 29.2675 9.56736C29.6951 9.75373 30.0048 10.0264 30.1096 10.27M30.1096 10.27C30.1095 10.2696 30.1094 10.2693 30.1092 10.269L30.4318 10.1333L30.1101 10.271C30.1099 10.2707 30.1098 10.2703 30.1096 10.27ZM8.22193 5.59591C9.36035 3.67645 11.0581 1.95933 12.6436 1.27425C13.733 0.783929 14.5081 0.651247 16.1682 0.651151C17.429 0.638189 18.3227 0.721864 19.2405 1.10365C20.1457 1.48019 21.0486 2.13661 22.353 3.20589C23.3093 3.975 24.5172 4.89432 25.0262 5.25143C25.5759 5.61039 26.4197 6.37874 26.945 6.9571L26.9514 6.9643C27.2935 7.36233 27.5208 7.58188 27.6846 7.69202C27.8205 7.78347 27.8699 7.7727 27.8932 7.76502C28.1422 7.67505 28.4284 7.67044 28.7031 7.70829C28.9842 7.74704 29.2807 7.83404 29.5643 7.95322C30.1213 8.18722 30.6881 8.57101 30.9981 9.03636C31.6493 10.014 31.6702 11.0703 31.2566 13.1923C30.6947 16.0917 28.4525 21.0105 26.017 24.7447C24.8955 26.4673 24.0015 27.6303 22.9679 28.5151C21.9304 29.4032 20.772 29.9943 19.1488 30.607C17.6863 31.1888 16.833 31.3536 15.3763 31.3272C14.5219 31.3272 13.9935 31.3159 13.3765 31.132C12.7747 30.9527 12.0978 30.6117 10.9219 29.9977C9.3956 29.2035 7.69141 28.1643 6.22609 27.1682C4.76956 26.178 3.5188 25.2102 2.92145 24.558C2.4429 24.0329 1.78826 22.9662 1.45162 22.2214L1.44766 22.2123C1.21288 21.6509 1.06087 21.2266 0.970267 20.7871C0.879478 20.3468 0.853516 19.9067 0.853516 19.317C0.853516 18.7198 0.864583 18.3146 0.943106 17.9952C1.0288 17.6465 1.18959 17.416 1.42142 17.1515L1.42295 17.1498C1.73413 16.7994 2.33947 16.3627 2.81197 16.1171L2.81902 16.1136C3.207 15.923 3.51406 15.6641 3.98474 14.8248C4.46493 13.9685 5.08845 12.5569 6.12172 10.1007L6.12219 10.0996C6.87685 8.32292 7.8132 6.28959 8.22193 5.59591Z" fill="#F07F7F"/>
<path d="M28.1058 9.41196C27.8103 9.49773 27.5214 9.53997 27.2098 9.36991C26.9499 9.22798 26.7052 8.94899 26.3986 8.57575C26.1135 8.23126 25.418 7.59384 24.3216 6.68838C23.2352 5.79117 21.7773 4.6485 19.9875 3.2984C19.6657 3.08258 18.9583 2.71135 18.4121 2.48735C17.4797 2.12935 16.3056 2.05712 15.1172 2.25571C13.9292 2.45423 12.7537 2.91906 11.8242 3.60456C10.2958 4.72742 9.01995 6.78162 7.1278 11.275C6.29281 13.2652 5.57845 14.8005 5.00467 15.842C4.71866 16.3612 4.46099 16.7699 4.23455 17.0533C4.12176 17.1944 4.00769 17.316 3.89267 17.4053C3.78741 17.487 3.64205 17.5725 3.46951 17.5772C3.46528 17.5783 3.44772 17.5825 3.41346 17.5955C3.36187 17.615 3.29409 17.646 3.21482 17.6881C3.05638 17.7722 2.87205 17.8899 2.7086 18.0185L2.70594 18.0205C2.37704 18.2741 2.28299 18.3711 2.23199 18.4904C2.17337 18.6275 2.15492 18.8326 2.15492 19.3686C2.15492 20.7491 3.02769 22.5968 4.27953 23.7838L4.2808 23.785C4.75199 24.2363 6.11539 25.212 7.63397 26.2159C9.14402 27.2142 10.7632 28.2114 11.7248 28.7053L11.7266 28.7062C12.5716 29.1464 13.0398 29.3656 13.5117 29.4832C13.9823 29.6004 14.4745 29.6211 15.3795 29.6211L15.385 29.6212C16.1927 29.6339 16.7376 29.6078 17.2543 29.5139C17.7706 29.42 18.2738 29.2557 18.9963 28.9751C20.3768 28.4155 21.3242 27.8982 22.1824 27.1418C23.0461 26.3804 23.8373 25.3613 24.8811 23.7686L24.882 23.7672C27.6521 19.5828 29.463 15.5271 30.0012 12.4716L30.0014 12.4705C30.1485 11.6525 30.2162 11.2011 30.2259 10.896C30.2348 10.6189 30.196 10.4755 30.1096 10.27M28.1058 9.41196C28.1061 9.41188 28.1055 9.41205 28.1058 9.41196ZM28.1058 9.41196L28.009 9.07561M28.1058 9.41196C28.4028 9.3266 28.8433 9.38251 29.2675 9.56736C29.6951 9.75373 30.0048 10.0264 30.1096 10.27M30.1096 10.27C30.1095 10.2696 30.1094 10.2693 30.1092 10.269L30.4318 10.1333L30.1101 10.271C30.1099 10.2707 30.1098 10.2703 30.1096 10.27ZM8.22193 5.59591C9.36035 3.67645 11.0581 1.95933 12.6436 1.27425C13.733 0.783929 14.5081 0.651247 16.1682 0.651151C17.429 0.638189 18.3227 0.721864 19.2405 1.10365C20.1457 1.48019 21.0486 2.13661 22.353 3.20589C23.3093 3.975 24.5172 4.89432 25.0262 5.25143C25.5759 5.61039 26.4197 6.37874 26.945 6.9571L26.9514 6.9643C27.2935 7.36233 27.5208 7.58188 27.6846 7.69202C27.8205 7.78347 27.8699 7.7727 27.8932 7.76502C28.1422 7.67505 28.4284 7.67044 28.7031 7.70829C28.9842 7.74704 29.2807 7.83404 29.5643 7.95322C30.1213 8.18722 30.6881 8.57101 30.9981 9.03636C31.6493 10.014 31.6702 11.0703 31.2566 13.1923C30.6947 16.0917 28.4525 21.0105 26.017 24.7447C24.8955 26.4673 24.0015 27.6303 22.9679 28.5151C21.9304 29.4032 20.772 29.9943 19.1488 30.607C17.6863 31.1888 16.833 31.3536 15.3763 31.3272C14.5219 31.3272 13.9935 31.3159 13.3765 31.132C12.7747 30.9527 12.0978 30.6117 10.9219 29.9977C9.3956 29.2035 7.69141 28.1643 6.22609 27.1682C4.76956 26.178 3.5188 25.2102 2.92145 24.558C2.4429 24.0329 1.78826 22.9662 1.45162 22.2214L1.44766 22.2123C1.21288 21.6509 1.06087 21.2266 0.970267 20.7871C0.879478 20.3468 0.853516 19.9067 0.853516 19.317C0.853516 18.7198 0.864583 18.3146 0.943106 17.9952C1.0288 17.6465 1.18959 17.416 1.42142 17.1515L1.42295 17.1498C1.73413 16.7994 2.33947 16.3627 2.81197 16.1171L2.81902 16.1136C3.207 15.923 3.51406 15.6641 3.98474 14.8248C4.46493 13.9685 5.08845 12.5569 6.12172 10.1007L6.12219 10.0996C6.87685 8.32292 7.8132 6.28959 8.22193 5.59591Z" stroke="#F07F7F" stroke-width="0.7"/>
<path d="M25.6494 13.2478C25.6494 13.0284 25.663 12.807 25.6866 12.6229C25.6983 12.5312 25.7132 12.4434 25.7318 12.3671C25.7474 12.3027 25.7748 12.2056 25.8284 12.1251C25.9092 12.0037 26.0461 11.8686 26.2498 11.8494C26.4575 11.8298 26.6134 11.9416 26.7049 12.0439C26.8796 12.2392 26.9721 12.5539 27.0007 12.879C27.0221 13.0852 26.9982 13.391 26.9573 13.7085C26.9149 14.0384 26.8493 14.4151 26.7737 14.7769C26.6983 15.1382 26.6115 15.4909 26.5255 15.7719C26.4827 15.9118 26.4382 16.0403 26.3931 16.1455C26.3706 16.1981 26.3457 16.2501 26.3183 16.2972C26.2936 16.3394 26.2558 16.3971 26.2017 16.4465C26.0846 16.5548 25.8454 16.7121 25.5799 16.5736C25.4657 16.5141 25.3969 16.4197 25.3564 16.3407C25.3153 16.2607 25.2913 16.1739 25.2768 16.0919C25.2207 15.7762 25.2693 15.3186 25.4039 14.8328C25.5366 14.3342 25.6494 13.6193 25.6494 13.2478Z" fill="#F07F7F" stroke="#F07F7F" stroke-width="0.7"/>
<path d="M23.6529 19.9064C23.6373 19.6697 23.6919 19.3316 23.9199 19.1109C23.9256 19.1016 23.935 19.0857 23.9477 19.0614C23.9702 19.0182 23.9967 18.9613 24.0252 18.8935C24.0817 18.7591 24.1409 18.5933 24.1884 18.4278C24.2378 18.2367 24.3073 18.0678 24.3996 17.9365C24.4866 17.8129 24.6346 17.6678 24.8496 17.6514C25.0877 17.6332 25.2545 17.7803 25.3446 17.9198C25.4336 18.0577 25.4838 18.2335 25.5089 18.4217C25.5362 18.6265 25.4892 18.8607 25.4267 19.0658C25.361 19.2811 25.2644 19.5078 25.1561 19.7141C25.0485 19.9191 24.9225 20.1169 24.793 20.2692C24.7287 20.3448 24.6554 20.4188 24.5749 20.4767C24.5008 20.5301 24.3819 20.5979 24.2341 20.5979C23.9988 20.5979 23.8468 20.4478 23.7698 20.3172C23.6944 20.1893 23.6616 20.0401 23.6529 19.9064Z" fill="#F07F7F" stroke="#F07F7F" stroke-width="0.7"/>
<path d="M6.74927 23.2158C6.63527 23.2158 6.53856 23.1765 6.46842 23.1372C6.3964 23.0969 6.33103 23.0447 6.27343 22.9911C6.15847 22.8841 6.0435 22.742 5.93371 22.5861C5.71249 22.2722 5.48056 21.8568 5.27757 21.4295C5.07434 21.0017 4.89369 20.5484 4.77968 20.1555C4.72283 19.9597 4.67997 19.7701 4.66112 19.6014C4.64369 19.4454 4.64033 19.2573 4.70724 19.0954C4.73638 19.024 4.7715 18.9523 4.81546 18.8885C4.85808 18.8267 4.92312 18.7516 5.01948 18.7016C5.12766 18.6456 5.25124 18.6342 5.36925 18.672C5.47445 18.7056 5.55199 18.7706 5.60486 18.8263C5.70814 18.9351 5.79368 19.091 5.86936 19.2583C5.9486 19.4334 6.03133 19.6541 6.11909 19.9176C6.20678 20.1809 6.33181 20.4658 6.46298 20.7112C6.59833 20.9645 6.72301 21.1429 6.80229 21.22C7.10423 21.5063 7.27736 21.9345 7.32395 22.288C7.34716 22.4643 7.34472 22.663 7.27838 22.8355C7.24401 22.9248 7.18674 23.0215 7.09255 23.097C6.99387 23.1762 6.87439 23.2158 6.74927 23.2158Z" fill="#F07F7F" stroke="#F07F7F" stroke-width="0.7"/>
<path d="M10.6523 24.974C10.4109 25.1139 10.1369 25.0518 9.95477 24.9817C9.75255 24.9039 9.54777 24.7726 9.36813 24.6242C9.18721 24.4747 9.01599 24.2948 8.88694 24.1064C8.76416 23.9271 8.65039 23.6978 8.65039 23.4579C8.65039 23.3131 8.65251 23.1487 8.68745 23.0193C8.70596 22.9507 8.74397 22.8499 8.83314 22.7678C8.93421 22.6748 9.05712 22.6451 9.1658 22.6505C9.26178 22.6552 9.34793 22.6865 9.41358 22.7162C9.48285 22.7474 9.55524 22.7888 9.629 22.8352C9.77558 22.9275 9.95995 23.0602 10.1856 23.2264C10.5668 23.4998 10.8672 23.7798 10.9896 24.07C11.0572 24.2302 11.0797 24.4162 11.0045 24.5998C10.933 24.7745 10.7949 24.8933 10.6523 24.974Z" fill="#F07F7F" stroke="#F07F7F" stroke-width="0.7"/>
<path d="M20.2425 24.8998C20.0549 24.8504 19.8977 24.7364 19.8076 24.5636C19.7216 24.3985 19.7162 24.2179 19.7491 24.06C19.8138 23.7495 20.0386 23.4472 20.3537 23.2364C20.5069 23.1293 20.6414 23.0409 20.7573 22.9783C20.8629 22.9213 21.0026 22.8571 21.1519 22.8569C21.2369 22.8568 21.3286 22.8772 21.4135 22.9314C21.4961 22.9841 21.5496 23.0544 21.5842 23.1181C21.6455 23.2311 21.6683 23.3646 21.6815 23.4704C21.7118 23.6769 21.6211 23.8766 21.547 24.0067C21.4614 24.157 21.3432 24.3072 21.2179 24.4374C21.093 24.5673 20.9485 24.6903 20.8034 24.7781C20.731 24.8219 20.6492 24.8626 20.5626 24.8884C20.479 24.9132 20.3646 24.932 20.2425 24.8998Z" fill="#F07F7F" stroke="#F07F7F" stroke-width="0.7"/>
</svg>
