<svg width="0" height="0" viewBox="0 0 32 32" fill="none" xmlns="http://www.w3.org/2000/svg">
<circle cx="16" cy="16" r="14" fill="white"/>
<path d="M1.11649 19.9024L1.11625 19.9015C0.869132 18.9765 0.75 17.4866 0.75 16.0114C0.75 14.5357 0.869208 13.0356 1.11583 12.089C2.47936 6.84597 7.29879 2.18587 12.5497 1.08055C14.539 0.643488 17.3452 0.643936 19.354 1.05749L19.3546 1.05762C24.7669 2.18532 29.5877 6.91569 30.9047 12.3644L30.9048 12.3646C31.1734 13.4803 31.2698 15.0368 31.2154 16.5684C31.1611 18.0995 30.9551 19.6346 30.604 20.706C28.2243 27.9705 20.7187 32.3555 13.0804 30.9778L13.0801 30.9777C7.50914 29.9657 2.61788 25.4414 1.11649 19.9024ZM29.7075 16.1075L29.7076 16.1051C29.7189 14.9078 29.7016 14.1532 29.6269 13.5234C29.5529 12.8988 29.4218 12.3904 29.1973 11.6866C27.8145 7.51623 24.1068 3.93794 19.8471 2.69518C19.1352 2.48811 18.0209 2.33694 16.8831 2.26671C15.7468 2.19657 14.6142 2.20882 13.8666 2.31803C8.40151 3.18429 3.84754 7.35957 2.48618 12.7779L2.48586 12.7792C2.23344 13.762 2.14755 15.2088 2.21517 16.6666C2.28278 18.1241 2.50231 19.56 2.84273 20.5218C4.31445 24.6484 8.20236 28.2272 12.4138 29.314C13.2501 29.5219 14.5622 29.6456 15.8744 29.6652C17.1891 29.6849 18.4687 29.5996 19.2425 29.4044L19.2447 29.4038C23.7265 28.3167 27.5011 24.8971 29.1318 20.4527C29.379 19.7595 29.5201 19.281 29.6019 18.6788C29.6846 18.0702 29.7075 17.3284 29.7075 16.1075Z" fill="#9C9F84" stroke="#9C9F84" stroke-width="0.5"/>
<path d="M5.37428 11.9334L5.37436 11.9332C6.70601 8.65093 9.69302 5.97869 13.0605 5.08584C15.4896 4.43234 18.7775 4.75697 20.969 5.84801L20.9698 5.84838C23.5683 7.15295 25.7491 9.60582 26.711 12.3048L26.7114 12.3062C27.054 13.2854 27.2325 14.5369 27.2488 15.7912C27.265 17.0459 27.1192 18.3228 26.7997 19.3539C25.1821 24.5777 19.8741 27.9029 14.4148 27.1419L14.4143 27.1418C9.8081 26.4897 5.85382 22.8848 4.93408 18.4803L4.93405 18.4801C4.74599 17.5769 4.70967 16.3074 4.79051 15.0919C4.87116 13.8794 5.07082 12.6832 5.37428 11.9334ZM19.2825 6.69157L19.2825 6.69165L19.2766 6.68949C18.6647 6.46608 17.4303 6.23554 16.5522 6.19391L16.5522 6.19393L16.5489 6.19373C13.4836 6.00686 11.0979 6.95612 8.94738 9.18047C7.47952 10.7047 6.6312 12.2576 6.30015 13.9458C5.65324 17.4177 6.6328 20.5864 9.09162 22.9933C11.0955 24.9469 13.1689 25.7935 15.9873 25.7935C18.8286 25.7935 20.8797 24.9673 22.8609 23.0153L22.8614 23.0149C26.7626 19.1928 26.9215 13.119 23.2207 9.33052L23.2203 9.33011C21.9375 8.01097 20.6884 7.16506 19.2825 6.69157Z" fill="#9C9F84" stroke="#9C9F84" stroke-width="0.5"/>
<path d="M14.1699 13.5305H14.1698L14.1701 13.5224C14.1825 13.1386 14.3381 12.4013 14.5407 11.7116C14.6431 11.3628 14.7603 11.0169 14.8823 10.724C15.0008 10.4396 15.1351 10.1766 15.2803 10.0177C15.4609 9.82002 15.647 9.66311 15.8458 9.57815C16.0558 9.48838 16.2727 9.4826 16.4854 9.57594C16.6857 9.66386 16.8615 9.83069 17.0245 10.0442C17.189 10.2598 17.3545 10.542 17.528 10.8871C17.9478 11.7111 18.1771 12.4912 18.2105 13.1626C18.2439 13.8323 18.0822 14.4207 17.6857 14.8153C16.801 15.6956 15.4445 15.6955 14.7021 14.7721C14.5506 14.5836 14.4202 14.3607 14.3271 14.1477C14.2365 13.9403 14.1699 13.7167 14.1699 13.5305ZM16.3787 13.9289C16.5717 13.8646 16.7266 13.7885 16.8259 13.6802C16.9134 13.5848 16.9799 13.4403 16.944 13.1779C16.8815 12.7873 16.672 12.2669 16.5127 12.0239L16.0574 11.4658L15.6854 12.2576C15.5343 12.6622 15.4609 12.991 15.4452 13.2489C15.4294 13.5099 15.4735 13.6818 15.5382 13.789C15.6469 13.9691 15.8979 14.0737 16.3787 13.9289Z" fill="#9C9F84" stroke="#9C9F84" stroke-width="0.5"/>
<path d="M17.8538 17.0591L18.3621 17.7501C18.5436 17.9524 18.896 18.1258 19.2532 18.2256C19.4291 18.2748 19.5906 18.3016 19.712 18.307C19.7292 18.3078 19.745 18.3081 19.7594 18.308C19.7512 18.23 19.7358 18.1298 19.7146 18.0169C19.6649 17.7532 19.5883 17.4465 19.5143 17.2362L19.5142 17.2362L19.5117 17.2284C19.3345 16.6665 19.1393 16.4973 19.0023 16.4591C18.86 16.4194 18.6438 16.4804 18.3223 16.7341L18.3161 16.739L18.3097 16.7434L17.8538 17.0591ZM19.8596 18.2977C19.8596 18.2976 19.8588 18.2979 19.8574 18.2985C19.859 18.298 19.8596 18.2977 19.8596 18.2977ZM16.8947 16.281L16.8995 16.274L16.9049 16.2674C17.016 16.1292 17.3541 15.8198 17.6884 15.6054C18.36 15.1449 19.029 15.035 19.618 15.3839C20.1786 15.7159 20.594 16.426 20.8831 17.415C20.9934 17.7793 21.0649 18.1003 21.0908 18.3783C21.1166 18.655 21.0988 18.9053 21.0153 19.1177C20.9287 19.3379 20.7768 19.5029 20.5666 19.6077C20.3639 19.7088 20.1194 19.748 19.8484 19.748C18.8757 19.748 17.9317 19.2132 17.3334 18.5428C17.0327 18.2058 16.8065 17.8206 16.7113 17.4309C16.6153 17.0374 16.6518 16.6293 16.8947 16.281Z" fill="#9C9F84" stroke="#9C9F84" stroke-width="0.5"/>
<path d="M12.3744 16.0957L12.3744 16.0957L12.3773 16.0927C12.6248 15.8347 12.8476 15.6519 13.1098 15.5475C13.3738 15.4425 13.6505 15.4276 13.9838 15.4513L13.9839 15.4512L13.9917 15.452C14.3287 15.4867 14.6029 15.5421 14.8392 15.7175C15.0695 15.8884 15.2333 16.1513 15.4162 16.5152L15.417 16.5168C15.7311 17.1534 15.8496 17.7136 15.5875 18.1867C15.336 18.6407 14.7786 18.923 14.0154 19.1498C13.1946 19.3993 12.5591 19.529 12.095 19.5134C11.8604 19.5055 11.6494 19.4601 11.4768 19.357C11.2977 19.2499 11.1785 19.0916 11.1158 18.8965L11.1157 18.8965L11.1147 18.8931C11.0573 18.7053 11.0696 18.4878 11.1153 18.2734C11.1619 18.0546 11.2483 17.8156 11.3633 17.5718C11.5935 17.0841 11.949 16.5544 12.3744 16.0957ZM12.8625 17.371L12.8625 17.371L12.8607 17.3732C12.6248 17.6516 12.5531 17.832 12.5473 17.9254C12.545 17.9631 12.5537 17.978 12.5595 17.9859C12.5677 17.997 12.5904 18.0194 12.6487 18.0407C12.7719 18.0858 12.9891 18.1021 13.3044 18.0583C13.6119 18.0156 13.9875 17.9194 14.4117 17.7661C14.5479 17.7119 14.6355 17.5776 14.6334 17.3637C14.6313 17.1462 14.5299 16.8835 14.3232 16.6768C14.2341 16.5876 14.1478 16.5502 14.0639 16.5405C13.976 16.5304 13.869 16.5484 13.74 16.6075C13.4758 16.7283 13.1724 16.9967 12.8625 17.371Z" fill="#9C9F84" stroke="#9C9F84" stroke-width="0.5"/>
</svg>
