<svg width="0" height="0" viewBox="0 0 30 30" fill="none" xmlns="http://www.w3.org/2000/svg">
<path d="M11.6215 0.0664062C10.6722 0.265625 10.1976 0.447266 9.61755 0.839844C9.10192 1.19141 8.53356 1.83008 8.24645 2.39258L8.00036 2.87891H7.29137C6.43005 2.87891 6.02575 2.97266 5.27575 3.34766C4.16247 3.9043 3.31872 4.93555 2.96716 6.16602C2.86169 6.5293 2.83825 6.76953 2.83825 7.33203V8.04102L2.35778 8.28711C0.0667647 9.45898 -0.712532 12.5234 0.740593 14.668L0.992546 15.0312L0.740593 15.3945C0.20739 16.1855 -0.0504229 17.1289 0.00817088 18.0781C0.0609053 18.7988 0.172233 19.2148 0.500358 19.8945C0.734733 20.3633 0.85778 20.5332 1.30309 20.9844C1.72497 21.4004 1.94176 21.5645 2.3402 21.7695L2.83825 22.0215V22.7305C2.83825 23.5801 2.92614 23.9785 3.30114 24.7344C3.8402 25.8418 4.89489 26.709 6.12536 27.0547C6.48278 27.1543 6.73473 27.1836 7.29137 27.1836L7.9945 27.1777L8.24645 27.6641C8.79137 28.7305 9.83434 29.5508 11.0707 29.8906C11.5863 30.0371 12.764 30.0371 13.2797 29.8906C13.7894 29.7559 14.2406 29.5508 14.6449 29.2695L14.9906 29.0352L15.3363 29.2695C16.1039 29.7969 16.7836 29.9961 17.8031 29.9961C18.682 29.9961 19.057 29.9082 19.8539 29.5215C20.3226 29.2871 20.4925 29.1641 20.9437 28.7188C21.3597 28.2969 21.5238 28.0801 21.7289 27.6875L21.9808 27.1836H22.6898C23.5394 27.1777 23.9261 27.0898 24.7172 26.709C25.1976 26.4746 25.3441 26.3691 25.8304 25.877C26.7679 24.9277 27.1488 24.0254 27.1429 22.7305V22.0215L27.641 21.7695C28.0394 21.5645 28.2562 21.4004 28.6781 20.9844C29.1234 20.5332 29.2465 20.3633 29.4808 19.8945C29.809 19.2148 29.9203 18.7988 29.973 18.0781C30.0316 17.1289 29.7738 16.1855 29.2406 15.3945L28.9886 15.0312L29.2406 14.668C30.6937 12.5176 29.9144 9.45312 27.6117 8.28125L27.1195 8.0293L27.1547 7.53125C27.2894 5.50977 25.8832 3.58203 23.8558 3.00781C23.4984 2.9082 23.2406 2.87891 22.6898 2.87891H21.9808L21.7289 2.375C21.5238 1.98242 21.3597 1.76562 20.9437 1.34375C20.4925 0.898438 20.3226 0.769531 19.848 0.535156C19.2152 0.224609 18.4359 0.03125 17.7855 0.03125C16.9652 0.03125 16.0453 0.3125 15.3597 0.78125L14.9906 1.02734L14.639 0.787109C13.9418 0.3125 12.9984 0.0253906 12.1664 0.0371094C11.932 0.0429688 11.6859 0.0546875 11.6215 0.0664062ZM12.7172 1.85352C13.1156 1.93555 13.5843 2.16406 13.8832 2.42188L14.1175 2.62109L14.1 4.68359L14.0824 6.74023L13.9359 7.00391C13.5609 7.67188 12.7172 7.94727 12.0316 7.625C11.8734 7.54883 11.68 7.42578 11.6156 7.34961C11.5453 7.27344 11.0472 6.45312 10.514 5.52734L9.54137 3.83984L9.66442 3.51758C10.1156 2.31055 11.4457 1.58398 12.7172 1.85352ZM18.7113 1.95898C19.4437 2.2168 20.0531 2.80859 20.3168 3.51758L20.4398 3.83984L19.5023 5.46289C18.9867 6.35352 18.4945 7.17383 18.4125 7.28516C18.1136 7.67773 17.4632 7.85938 16.9125 7.70703C16.6019 7.61914 16.2152 7.30859 16.0453 7.00391L15.8988 6.74023L15.8812 4.68359L15.8636 2.62109L16.098 2.42188C16.3851 2.17578 16.8011 1.96484 17.1879 1.86523C17.5804 1.76562 18.2836 1.80664 18.7113 1.95898ZM7.91833 4.71289C8.00622 4.74805 8.3402 5.27539 8.99059 6.39453C9.50622 7.29688 9.96911 8.13477 10.0101 8.25781C10.098 8.5332 10.057 9.02539 9.92809 9.2832C9.78747 9.54688 9.44176 9.875 9.16637 9.99805C8.89098 10.1211 8.48083 10.1387 8.18786 10.0391C8.07653 10.0039 7.25622 9.55273 6.35387 9.03125C5.25231 8.39258 4.70739 8.05273 4.67809 7.96484C4.49059 7.47266 4.5902 6.62305 4.90075 6.04297C5.10583 5.66211 5.62145 5.14648 6.01403 4.93555C6.56481 4.63672 7.44958 4.53711 7.91833 4.71289ZM23.1703 4.66602C23.9437 4.80664 24.7172 5.36328 25.0804 6.04297C25.391 6.62305 25.4906 7.47266 25.3031 7.96484C25.2738 8.05273 24.7289 8.39258 23.6273 9.03125C22.725 9.55273 21.9047 10.0039 21.7933 10.0391C21.5004 10.1387 21.0902 10.1211 20.8148 9.99805C20.5394 9.875 20.1937 9.54688 20.0531 9.2832C19.9242 9.02539 19.8832 8.5332 19.9711 8.25781C20.0414 8.05273 21.8461 4.87695 21.9574 4.75977C22.0043 4.71289 22.4379 4.61914 22.6722 4.60742C22.7543 4.60156 22.9769 4.63086 23.1703 4.66602ZM15.2953 8.80273C15.8636 9.2832 16.7308 9.55859 17.5101 9.50586C17.7855 9.48828 18.0609 9.45312 18.1254 9.43555C18.2308 9.40625 18.2601 9.44141 18.348 9.7168C18.4828 10.1504 18.8285 10.666 19.2328 11.0352C19.5609 11.3281 20.3168 11.75 20.5277 11.75C20.6039 11.75 20.6215 11.7793 20.5922 11.8789C20.5687 11.9551 20.5336 12.2363 20.516 12.5117C20.4632 13.3086 20.7386 14.1523 21.2484 14.7617L21.4886 15.0488L21.2484 15.3184C20.7504 15.8809 20.4632 16.748 20.516 17.5508C20.5336 17.8262 20.5687 18.1016 20.5863 18.166C20.6156 18.2715 20.5804 18.3008 20.3109 18.3887C19.473 18.6523 18.6117 19.5078 18.348 20.3398L18.2484 20.6562L18.0433 20.6152C17.9261 20.5859 17.5804 20.5684 17.2757 20.5742C16.4554 20.5742 15.7289 20.8555 15.184 21.377L14.9906 21.5586L14.8031 21.377C14.2523 20.8555 13.5257 20.5742 12.7054 20.5742C12.4007 20.5684 12.055 20.5859 11.9379 20.6152L11.7328 20.6562L11.6332 20.3398C11.3695 19.5137 10.5082 18.6523 9.67614 18.3887L9.36559 18.2891L9.40661 18.084C9.43591 17.9668 9.45348 17.6211 9.44762 17.3164C9.44762 16.5195 9.20739 15.8633 8.73278 15.3184L8.49255 15.0488L8.73278 14.7617C9.21911 14.1758 9.44762 13.5371 9.44762 12.7461C9.45348 12.4414 9.43005 12.0898 9.40661 11.9668C9.36559 11.7852 9.37731 11.75 9.45934 11.75C9.66442 11.75 10.4261 11.3281 10.7484 11.0352C11.1527 10.666 11.4984 10.1504 11.6332 9.7168C11.7211 9.44141 11.7504 9.40625 11.8558 9.43555C11.9203 9.45312 12.1957 9.48828 12.4711 9.50586C13.2504 9.55859 14.1175 9.2832 14.6859 8.80273C14.8265 8.67969 14.9672 8.58594 14.9906 8.58594C15.014 8.58594 15.1547 8.67969 15.2953 8.80273ZM5.41637 10.5195C6.307 11.0352 7.12145 11.5215 7.22692 11.6035C7.49059 11.8027 7.72497 12.2891 7.72497 12.6289C7.72497 13.2266 7.39098 13.7715 6.88122 14.0117C6.58825 14.1523 6.55895 14.1523 4.57848 14.1523H2.58044L2.36364 13.9062C1.89489 13.3555 1.67223 12.5352 1.79528 11.8203C1.9652 10.8125 2.5277 10.0977 3.44762 9.7168C3.6234 9.64648 3.77575 9.58203 3.78161 9.58203C3.78747 9.58203 4.51989 10.0039 5.41637 10.5195ZM26.7562 9.82812C27.764 10.3086 28.3793 11.5098 28.1859 12.6348C28.098 13.127 27.9047 13.5664 27.6175 13.9062L27.4007 14.1523H25.4379C24.1312 14.1523 23.3929 14.1289 23.2465 14.0879C22.9476 13.9941 22.6429 13.7363 22.4437 13.4023C22.309 13.168 22.2855 13.0625 22.2855 12.6875C22.2855 12.0781 22.4613 11.7793 23.0414 11.416C24.2777 10.6426 26.1644 9.59375 26.2699 9.62305C26.3343 9.63477 26.5511 9.72852 26.7562 9.82812ZM6.94567 16.0684C7.40856 16.3203 7.72497 16.8652 7.72497 17.4277C7.72497 17.7383 7.51989 18.2188 7.30895 18.4121C7.23278 18.4766 6.41247 18.9746 5.48669 19.5078L3.80505 20.4805L3.48864 20.3633C2.57458 20.0176 1.97106 19.2676 1.79528 18.248C1.67223 17.5273 1.89489 16.7129 2.3695 16.1562L2.58044 15.9043L4.64294 15.9219C6.64098 15.9395 6.70544 15.9453 6.94567 16.0684ZM27.6175 16.1562C28.7777 17.5215 28.1918 19.7246 26.4984 20.3633L26.182 20.4805L24.4945 19.5078C23.5687 18.9746 22.7484 18.4824 22.6722 18.4121C22.4613 18.2188 22.2562 17.7383 22.2562 17.4277C22.2562 16.9473 22.5257 16.3965 22.8773 16.168C23.2347 15.9336 23.3988 15.916 25.432 15.9102H27.4007L27.6175 16.1562ZM9.23669 20.0938C9.47106 20.2168 9.80505 20.5449 9.92809 20.7793C10.0687 21.0547 10.098 21.5352 9.99255 21.834C9.85192 22.25 8.09411 25.25 7.94762 25.3262C7.70739 25.4551 7.13903 25.4785 6.68786 25.373C5.3402 25.0684 4.38512 23.7031 4.60778 22.4141C4.6488 22.209 4.69567 22.0215 4.71911 21.998C4.80114 21.916 7.98864 20.0879 8.17028 20.0234C8.3988 19.9355 9.00231 19.9707 9.23669 20.0938ZM21.7933 20.0234C21.9808 20.0879 25.1625 21.8984 25.2621 21.998C25.2855 22.0215 25.3324 22.2031 25.3675 22.4023C25.5433 23.3926 24.9808 24.5293 24.0492 25.0801C23.4398 25.4375 22.4789 25.5547 22.0394 25.3262C21.8988 25.25 20.1468 22.2969 19.9945 21.8633C19.8422 21.4414 19.9066 20.9844 20.182 20.5918C20.5453 20.0703 21.2308 19.8242 21.7933 20.0234ZM13.1215 22.3848C13.4672 22.502 13.7894 22.7715 13.9535 23.0762C14.0765 23.3164 14.0824 23.3809 14.1 25.3789L14.1175 27.4414L13.8656 27.6523C12.5004 28.8242 10.2972 28.2383 9.65856 26.5391L9.54137 26.2285L10.4789 24.6055C10.9945 23.7148 11.4808 22.9004 11.5629 22.7949C11.8851 22.3672 12.559 22.1914 13.1215 22.3848ZM18.0609 22.4961C18.389 22.6895 18.4593 22.7891 19.5492 24.6875L20.4398 26.2285L20.3226 26.5273C19.9711 27.4531 19.2269 28.0508 18.225 28.2266C17.4808 28.3496 16.6722 28.1328 16.1156 27.6523L15.8636 27.4414L15.8812 25.3789C15.8988 23.3809 15.9047 23.3164 16.0277 23.0762C16.1859 22.7891 16.514 22.5078 16.8363 22.3848C17.1879 22.2559 17.7328 22.3027 18.0609 22.4961Z" fill="#825A92"/>
<path d="M14.1113 11.5156V12.3945H14.9902H15.8691V11.5156V10.6367H14.9902H14.1113V11.5156Z" fill="#825A92"/>
<path d="M11.3516 12.5234C11.2109 12.7577 11.0293 13.08 10.9355 13.2323C10.8477 13.3847 10.7715 13.537 10.7715 13.5663C10.7715 13.6191 12.2305 14.4745 12.2656 14.4394C12.3008 14.3984 13.1152 12.9804 13.1152 12.957C13.1152 12.9277 11.6855 12.1015 11.6328 12.1015C11.6152 12.1015 11.4863 12.2948 11.3516 12.5234Z" fill="#825A92"/>
<path d="M17.6154 12.5001C17.2404 12.7169 16.9181 12.9102 16.8947 12.9337C16.8712 12.9512 17.047 13.3028 17.2873 13.7071C17.5978 14.2462 17.7384 14.4395 17.8029 14.4161C18.008 14.3341 19.2091 13.6075 19.2091 13.5665C19.2091 13.4844 18.4064 12.1368 18.3537 12.1192C18.3244 12.1134 17.9904 12.2833 17.6154 12.5001Z" fill="#825A92"/>
<path d="M14.1113 15.0312V15.9102H14.9902H15.8691V15.0312V14.1523H14.9902H14.1113V15.0312Z" fill="#825A92"/>
<path d="M11.5042 16.0275C11.1175 16.256 10.7952 16.461 10.7835 16.4903C10.7659 16.5372 11.4866 17.8204 11.5921 17.9259C11.639 17.9728 12.9046 17.2989 13.0745 17.1466C13.1156 17.1056 12.3011 15.6173 12.2366 15.6173C12.2191 15.6173 11.8909 15.8048 11.5042 16.0275Z" fill="#825A92"/>
<path d="M17.2884 16.3556C17.0482 16.7657 16.8783 17.1173 16.9076 17.1407C17.0834 17.2989 18.3431 17.9728 18.39 17.9259C18.4662 17.8439 19.2103 16.5548 19.2103 16.4962C19.2103 16.4552 17.8099 15.6173 17.7396 15.6173C17.7279 15.6173 17.5228 15.9513 17.2884 16.3556Z" fill="#825A92"/>
<path d="M14.1113 18.5469V19.4258H14.9902H15.8691V18.5469V17.668H14.9902H14.1113V18.5469Z" fill="#825A92"/>
</svg>
