<svg width="0" height="0" viewBox="0 0 1440 904" fill="none" xmlns="http://www.w3.org/2000/svg">
<path d="M0 452V904H720H1440V452V2.31862e-05H720H0V452ZM148.448 31.5764V50.4203H100.752H53.0555L52.9483 95.5948L52.7875 140.82H33.2266H13.6658L13.505 76.7509L13.3978 12.7324H80.923H148.448V31.5764ZM1278.15 31.5764V50.4203H720H161.846V31.5764V12.7324H720H1278.15V31.5764ZM1426.5 76.7509L1426.33 140.82H1406.77H1387.21L1387.05 95.5948L1386.94 50.4203H1339.25H1291.55V31.5764V12.7324H1359.08H1426.6L1426.5 76.7509ZM100.216 79.4502V95.7476H83.3346H66.4533V79.4502V63.1527H83.3346H100.216V79.4502ZM148.448 79.4502V95.7476L131.192 95.6458L113.882 95.493L113.721 79.2974L113.614 63.1527H131.031H148.448V79.4502ZM196.144 79.4502V95.7476H178.995H161.846V79.4502V63.1527H178.995H196.144V79.4502ZM1229.92 85.8164V108.48H1254.04H1278.15V131.144V153.807H1301.73H1325.31V176.216V198.625H1349.43H1373.55V451.745V704.865H1349.43H1325.31V727.529V750.193H1301.73H1278.15V772.856V795.52H1254.04H1229.92V818.184V840.847H719.732H209.542V818.184V795.52H185.694H161.846V772.856V750.193H137.998H114.15L114.042 727.631L113.882 705.12L90.1943 704.967L66.4533 704.865V451.745V198.625H90.3015H114.15V176.216V153.807H137.998H161.846V131.144V108.48H185.694H209.542V85.8164V63.1527H719.732H1229.92V85.8164ZM1277.51 79.2974L1277.35 95.493L1260.36 95.6458L1243.32 95.7476V79.4502V63.1527H1260.47H1277.62L1277.51 79.2974ZM1325.31 79.4502V95.7476H1308.43H1291.55V79.4502V63.1527H1308.43H1325.31V79.4502ZM1373.55 79.4502V95.7476L1356.29 95.6458L1338.98 95.493L1338.82 79.2974L1338.71 63.1527H1356.13H1373.55V79.4502ZM100.216 124.777V141.075H83.3346H66.4533V124.777V108.48H83.3346H100.216V124.777ZM148.448 124.777V141.075L131.192 140.973L113.882 140.82L113.721 124.625L113.614 108.48H131.031H148.448V124.777ZM1325.31 124.777V141.075L1308.59 140.973L1291.82 140.82L1291.66 124.625L1291.55 108.48H1308.43H1325.31V124.777ZM1373.55 124.777V141.075L1356.29 140.973L1338.98 140.82L1338.82 124.625L1338.71 108.48H1356.13H1373.55V124.777ZM52.9483 451.847L52.7875 749.938H33.2266H13.6658L13.505 451.847L13.3978 153.807H33.2266H53.0555L52.9483 451.847ZM100.752 169.85V185.893H83.6025H66.4533V169.85V153.807H83.6025H100.752V169.85ZM1373.01 169.85V185.893H1355.86H1338.71V169.85V153.807H1355.86H1373.01V169.85ZM1426.5 451.847L1426.33 749.938H1406.77H1387.21L1387.05 451.847L1386.94 153.807H1406.77H1426.6L1426.5 451.847ZM100.484 733.895V749.938L83.4953 750.091L66.4533 750.193V733.895V717.598L83.4953 717.7L100.484 717.852V733.895ZM1372.74 733.895V749.938H1355.86H1338.98L1338.82 734.405C1338.77 725.848 1338.82 718.565 1338.98 718.209C1339.14 717.7 1342.79 717.598 1355.97 717.7L1372.74 717.852V733.895ZM53.0555 808.252V853.58H100.752H148.448V872.424V891.268L81.0837 891.166L13.6658 891.013L13.505 826.944L13.3978 762.925H33.2266H53.0555V808.252ZM100.216 779.223V795.52H83.3346H66.4533V779.223V762.925H83.3346H100.216V779.223ZM148.448 779.223V795.52L131.192 795.418L113.882 795.265L113.721 779.07L113.614 762.925H131.031H148.448V779.223ZM1325.31 779.223V795.52H1308.43H1291.55V779.223V762.925H1308.43H1325.31V779.223ZM1373.55 779.223V795.52L1356.29 795.418L1338.98 795.265L1338.82 779.732C1338.77 771.176 1338.82 763.944 1338.98 763.587C1339.14 763.078 1343.05 762.925 1356.4 762.925H1373.55V779.223ZM1426.6 827.096V891.268H1359.08H1291.55V872.424V853.58H1339.25H1386.94V808.252V762.925H1406.77H1426.6V827.096ZM100.216 824.55V840.847H83.3346H66.4533V824.55V808.252H83.3346H100.216V824.55ZM148.448 824.55V840.847L131.192 840.745L113.882 840.593L113.721 824.397L113.614 808.252H131.031H148.448V824.55ZM196.037 824.397L195.876 840.593H178.995H162.114L161.953 824.397L161.846 808.252H178.995H196.144L196.037 824.397ZM1277.51 824.397L1277.35 840.593L1260.36 840.745L1243.32 840.847V824.55V808.252H1260.47H1277.62L1277.51 824.397ZM1325.31 824.55V840.847H1308.43H1291.55V824.55V808.252H1308.43H1325.31V824.55ZM1373.55 824.55V840.847L1356.29 840.745L1338.98 840.593L1338.82 824.397L1338.71 808.252H1356.13H1373.55V824.55ZM1278.15 872.424V891.268H720H161.846V872.424V853.58H720H1278.15V872.424Z" fill="black" fill-opacity="0.52"/>
</svg>
