<svg width="0" height="0" viewBox="0 0 451 347" fill="none" xmlns="http://www.w3.org/2000/svg">
<path d="M369.634 20.145C371.061 9.74771 379.944 2 390.439 2H418.659C429.261 2 438.201 9.90335 439.5 20.426L443.175 50.1834L447.972 129.081L448.999 180.491L447.973 215.905L443.175 288.329L439.177 326.205C438.049 336.89 429.037 345 418.293 345H390.84C380.188 345 371.223 337.026 369.983 326.446L365.51 288.313L360.37 215.891L359.001 180.488L360.371 129.092L365.509 50.2012L369.634 20.145Z" fill="#A8835E" stroke="#110E0A" stroke-width="4"/>
<line y1="-2" x2="47.1209" y2="-2" transform="matrix(0.700327 0.713823 -0.700327 0.713823 387 73.3643)" stroke="#020201" stroke-opacity="0.83" stroke-width="4"/>
<path d="M419.108 72L387 105.636" stroke="#020201" stroke-opacity="0.83" stroke-width="4"/>
<line y1="-2" x2="47.1209" y2="-2" transform="matrix(0.700327 0.713823 -0.700327 0.713823 387 160.363)" stroke="#020201" stroke-opacity="0.83" stroke-width="4"/>
<path d="M419.108 159L387 192.636" stroke="#020201" stroke-opacity="0.83" stroke-width="4"/>
<line y1="-2" x2="47.1209" y2="-2" transform="matrix(0.700327 0.713823 -0.700327 0.713823 387 245.363)" stroke="#020201" stroke-opacity="0.83" stroke-width="4"/>
<path d="M419.108 244L387 277.636" stroke="#020201" stroke-opacity="0.83" stroke-width="4"/>
<line x1="405" y1="20" x2="405" y2="332" stroke="#92704B" stroke-opacity="0.23" stroke-width="2"/>
<path d="M250.634 20.145C252.061 9.74771 260.944 2 271.439 2H299.659C310.261 2 319.201 9.90335 320.5 20.426L324.175 50.1834L328.972 129.081L329.999 180.491L328.973 215.905L324.175 288.329L320.177 326.205C319.049 336.89 310.037 345 299.293 345H271.84C261.188 345 252.223 337.026 250.983 326.446L246.51 288.313L241.37 215.891L240.001 180.488L241.371 129.092L246.509 50.2012L250.634 20.145Z" fill="#A8835E" stroke="#110E0A" stroke-width="4"/>
<line y1="-2" x2="47.1209" y2="-2" transform="matrix(0.700327 0.713823 -0.700327 0.713823 268 73.3643)" stroke="#020201" stroke-opacity="0.83" stroke-width="4"/>
<path d="M300.108 72L268 105.636" stroke="#020201" stroke-opacity="0.83" stroke-width="4"/>
<line y1="-2" x2="47.1209" y2="-2" transform="matrix(0.700327 0.713823 -0.700327 0.713823 268 160.363)" stroke="#020201" stroke-opacity="0.83" stroke-width="4"/>
<path d="M300.108 159L268 192.636" stroke="#020201" stroke-opacity="0.83" stroke-width="4"/>
<line y1="-2" x2="47.1209" y2="-2" transform="matrix(0.700327 0.713823 -0.700327 0.713823 268 245.363)" stroke="#020201" stroke-opacity="0.83" stroke-width="4"/>
<path d="M300.108 244L268 277.636" stroke="#020201" stroke-opacity="0.83" stroke-width="4"/>
<line x1="286" y1="20" x2="286" y2="332" stroke="#92704B" stroke-opacity="0.23" stroke-width="2"/>
<path d="M131.634 20.145C133.061 9.74771 141.944 2 152.439 2H180.659C191.261 2 200.201 9.90335 201.5 20.426L205.175 50.1834L209.972 129.081L210.999 180.491L209.973 215.905L205.175 288.329L201.177 326.205C200.049 336.89 191.037 345 180.293 345H152.84C142.188 345 133.223 337.026 131.983 326.446L127.51 288.313L122.37 215.891L121.001 180.488L122.371 129.092L127.509 50.2012L131.634 20.145Z" fill="#A8835E" stroke="#110E0A" stroke-width="4"/>
<line y1="-2" x2="47.1209" y2="-2" transform="matrix(0.700327 0.713823 -0.700327 0.713823 149 73.3643)" stroke="#020201" stroke-opacity="0.83" stroke-width="4"/>
<path d="M181.108 72L149 105.636" stroke="#020201" stroke-opacity="0.83" stroke-width="4"/>
<line y1="-2" x2="47.1209" y2="-2" transform="matrix(0.700327 0.713823 -0.700327 0.713823 149 160.363)" stroke="#020201" stroke-opacity="0.83" stroke-width="4"/>
<path d="M181.108 159L149 192.636" stroke="#020201" stroke-opacity="0.83" stroke-width="4"/>
<line y1="-2" x2="47.1209" y2="-2" transform="matrix(0.700327 0.713823 -0.700327 0.713823 149 245.363)" stroke="#020201" stroke-opacity="0.83" stroke-width="4"/>
<path d="M181.108 244L149 277.636" stroke="#020201" stroke-opacity="0.83" stroke-width="4"/>
<line x1="167" y1="20" x2="167" y2="332" stroke="#92704B" stroke-opacity="0.23" stroke-width="2"/>
<path d="M10.266 19.8401C11.8434 8.46743 21.5663 0 33.0479 0L62.0614 0C73.6623 0 83.4473 8.63945 84.8843 20.151L88.6104 50L93.4649 129L94 180L93.4649 216L88.6104 288.5L84.5624 326.44C83.315 338.132 73.4502 347 61.6922 347H33.4523C21.7971 347 11.9843 338.282 10.6122 326.708L6.08277 288.5L0.881447 216L0 179L0.881447 129L6.08277 50L10.266 19.8401Z" fill="#E2CCB6" fill-opacity="0.7"/>
<path d="M12.247 20.1149C13.6873 9.73114 22.5647 2 33.0479 2L62.0614 2C72.6535 2 81.5876 9.88819 82.8997 20.3987L86.618 50.1855L91.4656 129.072L91.9998 179.996L91.4659 215.918L86.6175 288.327L82.5737 326.228C81.4347 336.903 72.4278 345 61.6922 345H33.4523C22.8106 345 13.8511 337.04 12.5983 326.472L8.07432 288.311L2.87974 215.905L2.00042 178.994L2.88029 129.083L8.07371 50.2034L12.247 20.1149Z" stroke="black" stroke-opacity="0.7" stroke-width="4"/>
<path d="M17.6301 22.6304C18.8182 13.6837 26.4482 7 35.4735 7L60.5458 7C69.6607 7 77.3369 13.8134 78.4186 22.8639L81.8851 51.8676L86.465 129.71L87.4829 180.397L86.4668 215.277L81.884 286.76L78.0972 323.829C77.1589 333.014 69.4232 340 60.1904 340H35.863C26.7074 340 19.0104 333.127 17.9778 324.03L13.7431 286.721L8.83345 215.245L7.52976 180.39L8.8358 129.735L13.7417 51.9106L17.6301 22.6304Z" stroke="#6D4E2B" stroke-opacity="0.13" stroke-width="10"/>
<line y1="-2" x2="47.4165" y2="-2" transform="matrix(0.704834 0.709373 -0.704834 0.709373 30 157.365)" stroke="#020201" stroke-opacity="0.75" stroke-width="4"/>
<path d="M62.5186 156L30.0011 189.636" stroke="#020201" stroke-opacity="0.75" stroke-width="4"/>
</svg>
