<svg width="0" height="0" viewBox="0 0 94 347" fill="none" xmlns="http://www.w3.org/2000/svg">
<path d="M12.6339 20.145C14.0607 9.74771 22.9442 2 33.4389 2H61.6586C72.2611 2 81.2006 9.90335 82.5002 20.426L86.1754 50.1834L90.972 129.081L91.9994 180.491L90.9727 215.905L86.1749 288.329L82.1768 326.205C81.0488 336.89 72.0374 345 61.2928 345H33.8396C23.188 345 14.2234 337.026 12.9826 326.446L8.50998 288.313L3.36953 215.891L2.00103 180.488L3.37053 129.092L8.50938 50.2012L12.6339 20.145Z" fill="#A8835E" stroke="#110E0A" stroke-width="4"/>
<line y1="-2" x2="47.1209" y2="-2" transform="matrix(0.700327 0.713823 -0.700327 0.713823 30 73.3643)" stroke="#020201" stroke-opacity="0.83" stroke-width="4"/>
<path d="M62.1084 72L30.0003 105.636" stroke="#020201" stroke-opacity="0.83" stroke-width="4"/>
<line y1="-2" x2="47.1209" y2="-2" transform="matrix(0.700327 0.713823 -0.700327 0.713823 30 160.364)" stroke="#020201" stroke-opacity="0.83" stroke-width="4"/>
<path d="M62.1084 159L30.0003 192.636" stroke="#020201" stroke-opacity="0.83" stroke-width="4"/>
<line y1="-2" x2="47.1209" y2="-2" transform="matrix(0.700327 0.713823 -0.700327 0.713823 30 245.363)" stroke="#020201" stroke-opacity="0.83" stroke-width="4"/>
<path d="M62.1084 244L30.0003 277.636" stroke="#020201" stroke-opacity="0.83" stroke-width="4"/>
<line x1="48" y1="20" x2="48" y2="332" stroke="#92704B" stroke-opacity="0.23" stroke-width="2"/>
</svg>
