<svg width="0" height="0" viewBox="0 0 94 347" fill="none" xmlns="http://www.w3.org/2000/svg">
<path d="M10.266 19.8401C11.8434 8.46743 21.5663 0 33.0479 0L62.0614 0C73.6623 0 83.4473 8.63945 84.8843 20.151L88.6104 50L93.4649 129L94 180L93.4649 216L88.6104 288.5L84.5624 326.44C83.315 338.132 73.4502 347 61.6922 347H33.4523C21.7971 347 11.9843 338.282 10.6122 326.708L6.08277 288.5L0.881447 216L0 179L0.881447 129L6.08277 50L10.266 19.8401Z" fill="#E2CCB6" fill-opacity="0.7"/>
<path d="M12.247 20.1149C13.6873 9.73114 22.5647 2 33.0479 2L62.0614 2C72.6535 2 81.5876 9.88819 82.8997 20.3987L86.618 50.1855L91.4656 129.072L91.9998 179.996L91.4659 215.918L86.6175 288.327L82.5737 326.228C81.4347 336.903 72.4278 345 61.6922 345H33.4523C22.8106 345 13.8511 337.04 12.5983 326.472L8.07432 288.311L2.87974 215.905L2.00042 178.994L2.88029 129.083L8.07371 50.2034L12.247 20.1149Z" stroke="black" stroke-opacity="0.7" stroke-width="4"/>
<path d="M17.6301 22.6304C18.8182 13.6837 26.4482 7 35.4735 7L60.5458 7C69.6607 7 77.3369 13.8134 78.4186 22.8639L81.8851 51.8676L86.465 129.71L87.4829 180.397L86.4668 215.277L81.884 286.76L78.0972 323.829C77.1589 333.014 69.4232 340 60.1904 340H35.863C26.7074 340 19.0104 333.127 17.9778 324.03L13.7431 286.721L8.83345 215.245L7.52976 180.39L8.8358 129.735L13.7417 51.9106L17.6301 22.6304Z" stroke="#6D4E2B" stroke-opacity="0.13" stroke-width="10"/>
</svg>
